# xmcd CD database file
#
# Track frame offsets:
#	182
#	68385
#	90712
#	103807
#	130432
#	175940
#	200765
#	250932
#	259332
#	305580
#
# Disc length: 4436 seconds
#
# Revision: 0
# Processed by: cddbd v1.5.2PL0 Copyright (c) Steve Scherf et al.
# Submitted via: CDex 1.51
#
DISCID=9111520a
DTITLE=Joachim Kuehn - Collection
DYEAR=1998
DGENRE=Jazz
TTITLE0=Bank of Memory
TTITLE1=Chemin de la Source
TTITLE2=Machine
TTITLE3=Source
TTITLE4=Wandlungen
TTITLE5=Question
TTITLE6=Norddeutschland
TTITLE7=Dark
TTITLE8=Heavy Birthday
TTITLE9=I'm not Dreaming
EXTD=YEAR: 1998
EXTT0=
EXTT1=
EXTT2=
EXTT3=
EXTT4=
EXTT5=
EXTT6=
EXTT7=
EXTT8=
EXTT9=
PLAYORDER=
